<svg xmlns="http://www.w3.org/2000/svg" width="354" height="350" viewBox="0 0 354 350"><defs><style>.cls-1{fill:#6464fc;fill-rule:evenodd}</style></defs><path id="Colore_riempimento_1" d="M258,49h66c2.22,0.715,4.21,2.391,7,3l3,4h1v2h1v2h1v3h1V210h1v4h1q0.5,3,1,6h1l1,4h1v2l2,1v2l2,1,5,6H300v73c0,11,1.526,25.256-3,32l-4,3c-1.74,1.715-3.633,3.974-6,5-3.911,1.695-11.565,1-17,1H111c-18.766,0-45.829,3.183-57-5l-1-2H52v-2l-2-1-1-4H48c-2.61-6.039-1.06-21.815-1-30H0V39c0-6.838-1.128-15.66,1-21H2V16H3V14L9,6h2l1-2C22.464-2.622,49.142,0,66,0H194c18.765,0,45.829-3.183,57,5l1,2h1V9l2,1v2h1v2h1v3h1V49ZM10,296H214V38c0-9.537-.857-21.458,2-28H26l-9,3-3,4H13l-1,4H11v5c-1.483,4.919-1,13.478-1,20V296Zm213,10H56v19l3,10,3,2v1h2v1h4v1H239c3.822,0,7.539-.139,10-1v1h1v-3c-3.627-3.312-2-15.381-2-22V99c0-26.947,2.4-60.52-2-84a21.92,21.92,0,0,1-5-4c-4.241-.314-8.171-1.728-11,1-3.087.705-4.254,1.949-5,5-3.219,3.495-2,13.526-2,20V306ZM268,59v2a11.612,11.612,0,0,0-8,6v2h-1c-1.959,4.913-1,12.674-1,19V329c0.752,2.492,2.389,5.165,3,8l7,5,8,1c4.78-1.335,10.765-4.037,12-9,3.187-3.274,2-12.723,2-19V65h1V63h1l1-3C285.919,59.366,276.535,59.011,268,59Zm36,4-1,3h-1v2h-1v4h-1V226h32c-0.472-5-2.765-8.874-4-13V72h-1V68h-1V66h-1l-1-3-3-1V61h-2V60h-4c-0.345-.089-0.258-1.306-2-1v1h-4v1h-2v1ZM50,89H171c2.24,3.851,3.039,3.142,3,10a19.181,19.181,0,0,0-3,3H50c-1.075-1.765-5.214-5.409-3-10A20.816,20.816,0,0,0,50,89Zm0,40H171c2.24,3.851,3.039,3.142,3,10a19.163,19.163,0,0,0-3,3H50c-1.075-1.765-5.214-5.409-3-10A20.822,20.822,0,0,0,50,129Zm0,41H171c2.24,3.851,3.039,3.142,3,10a19.163,19.163,0,0,0-3,3H50c-1.075-1.765-5.214-5.409-3-10A20.822,20.822,0,0,0,50,170Zm0,40H171c2.24,3.851,3.039,3.142,3,10a19.163,19.163,0,0,0-3,3H50c-1.075-1.765-5.214-5.409-3-10A20.822,20.822,0,0,0,50,210Z" class="cls-1" data-name="Colore riempimento 1"/></svg>